<svg width="48" height="48" fill="none" xmlns="http://www.w3.org/2000/svg"><rect x="3" y="3" width="42" height="42" rx="9.545" fill="#000"/><path d="m9.84 21.158.242.358c-.482-.014-.986-.06-1.082-.268 0-.01.003-.02.006-.03.269-.07.5-.074.835-.06Zm2.557 1.09.116.354-.271.011.065-.362c.03 0 .06 0 .09-.003Zm.926 2.583c-.24.221-.426.368-.569.704-.198-.163-.301-.486-.365-.847-.07-.393-.094-.83-.147-1.158l.017-.167.278-.02.711 1.345.075.142v.001Zm-.36-3.315c.036-.242.072-.483.11-.725l.092-.006c-.068.244-.136.488-.201.731Zm-.193-3.287 1.274.345a2.71 2.71 0 0 0-.006.057c-.593.439-1.14.631-1.435 1.424l.111-1.764.056-.06v-.002Zm1.189-1.826c-.082.82.034 1.183.177 1.693.226.161.317.259.243.498-.382-.19-.787-.388-1.373-.357a3.362 3.362 0 0 1-.042-.05c.164-.646.484-1.044.731-1.556l.265-.23-.001.002Zm1.832-1.093.055-.004c-.176.606-.247 2.003-.554 2.558-.726-.344-.712-1.835.1-2.424l.399-.13Zm-.677 4.487.611.664c-.24.74-.695 1.296-.887 2.152l-.361-.028c-.309-.862.463-2.267.594-2.895l.567.065.208.532-.732-.49Zm1.673-4.493c-.062.718.096 1.09.139 1.645-.36.184-.72.365-1.08.548a7.45 7.45 0 0 1 .528-2.161l.413-.032Zm.42-1.09.08-.005-.122.35-.24.015.185-.217.096-.143Zm.08 3.348-1.082.666c.023-.402.535-.945.964-1.095l.1.054.018.375Zm.722-2.517c-.067.371-.132.74-.196 1.112l-.202.127-.108.117c-.195-.274-.245-.948-.202-1.46l.708.104Zm.719-.835c0 .014-.003.026-.004.037l-.276.265c-.184.07-.207.068-.44.06.03-.121.064-.241.097-.362h.623Zm.722-1.46-.323.728-1.118-.08.004-.06c.46-.212.863-.464 1.435-.59l.002.001Zm-.584 1.896.12-.07.103.365-.361-.071.138-.225v.001Zm.943 1.08c-.429.167-1.022.12-1.366.312-.024-.147-.05-.293-.075-.44l.224-.292c.364.141.728.286 1.09.429l.127-.009Zm-.921.657-.49.018c-.011-.05-.02-.101-.03-.154.344-.14.922-.153 1.441-.21l-.547.3-.374.046Zm1.28 0c-.411.103-.806.467-1.076.75-.053-.33.583-.914.887-1.097.135.12.149.108.19.347Zm.723-4.364-.006.056-.433.262-.643.047.006-.056 1.076-.31Zm-.583 1.095-.14-.205c.326-.273 1.044-.123 1.443-.082l-1.303.287Zm3.224-1.075c.602.05 1.152.19 1.572.453l.11-.007-.067.093-.576.17c-.347-.048-.693-.1-1.039-.149l-2.282-.324.006-.047a7.61 7.61 0 0 1 2.276-.188v-.001Zm2.397-.193-.128.173a1.741 1.741 0 0 1-.948-.365l1.081.137-.005.055Zm1.92 1.35.298-.113.31.267c-.043.304-.335.553-.56.849l-.173.011c-.47-.778-1.063-1.63-2.104-1.93l-.045-.091.42-.17c.707.246 1.296.62 1.951.835.085.205.058.136-.1.343h.002Zm.869 1.732-.083-.08-.178.012.297-.283-.037.35Zm.318 4.031c.487.422.611 1.034.41 1.826l-.63-1.41c.071-.106.138-.21.207-.315.005-.034.007-.068.013-.1Zm.141-3.284-.005.068-.256.293-.1-.194c.155-.276.043-.127.245-.155l.116-.012Zm.3-.004 1.142.423a1.48 1.48 0 0 1-.01.114l-.29.194-1.142-.422.01-.115.29-.194Zm2.223 1.462-.633-.42-.087-.17c.274-.17.235-.161.525-.105.063.233.13.465.195.695Zm.36-.138-.128.138c-.153-.079-.18-.18-.232-.366l.33.144.03.084Zm-.27-1.047-.09.008c.1-.095.198-.19.3-.284l-.21.276Zm1.712 1.838-.177.078a313.2 313.2 0 0 1-.964-.542l-.301-.41c.5-.369.518.059.99.292l.452.582Zm.36.323-.36-.132.217-.113.143.245Zm-.44.589c.131.261.131.188.44.148l-.554.479-.528-1.008.007-.063c.39-.083.514.057.895.114l.146.235-.405.095Zm.08.655.72-.394c-.144.326-.332.493-.554.73l-.166-.336Zm1.441 1.394c-.195.169-.323.223-.692.254l.297.032-.005.053-1.015.43-.026-1.302.7-.828.127-.061.614 1.422Zm-.36-1.998c1.99-.555 1.604.5.717 1.306-.24-.434-.48-.87-.718-1.306Zm1.801.21c-.733 3.446-.875 3.634-3.468 5.115a4.67 4.67 0 0 0-.136-.205l.092-.385c1.692-.482 2.653-1.368 2.552-3.374l.848-1.09.112-.06Zm.088 0a15.974 15.974 0 0 0-.088-.356l.27-.009-.182.365ZM32.06 22.31l.025-.38.023-.326.249-.084c.013 0 .024-.003.035-.004.071.432 0 .75-.141 1.097-.122-.078-.146-.11-.191-.303Zm-1.441 3.196.005-.063.473-1.131.1-.238.832.056c.012.063.02.124.025.182.037.43-.112.774-.265 1.223l-1.17-.029Zm.36 1.467.01-.566.015-.142.608.046.088-.008c-.14.231-.279.462-.416.694l-.304-.024Zm-.356-2.364.037-.018.287-.15.033-.002-.043.152-.168.578-.15-.515.004-.045Zm-.562 1.819-.163-.163c.159.11.055.003.163.163Zm-.884-.435c.203-.127.422-.087.723-.084l-.09.293c-.247.099-.283.062-.562.032l-.07-.24Zm.442 1.368.28.66c-.216.145-.433.29-.648.437-.192-.265.017-1.005.368-1.097Zm-.712-2.293-.09.007.119-.27-.029.263Zm1.038.101-.047-.03.159-.333.052-.002.15.351-.314.014Zm2.495-4.749-.02-.123c.096-.116.156-.188.32-.24l.042.215c-.071.046-.142.092-.211.14l-.13.008Zm-.02.892c-.065.086-.18.135-.263.204l-.097-1.826.36 1.622Zm-.66 2.449c.237-.133.271-.01.3.312h-.72l.012-.114.407-.198Zm-.354-1.01.162-.138.132.235-.06.13-.3-.035.066-.191Zm-.067.969-.375.354-.245-.041-.099.01c.057-.112.116-.224.174-.334l.545.011Zm-1.359-.208c-.15-.105-.042-.09-.07-.17l.07.17Zm1.136-1.63-1.218-.632c.057-.835.159-1.795.076-2.656.939.34 1.781 1.867 1.142 3.287Zm-.857 0c.299.158.283.302.698.43.072.27-.038.377-.211.665l-.442-.017c-.09-.482.009-.758-.045-1.079Zm.082 2.362c-.151-.105-.042-.09-.07-.17l.07.17Zm2.44-3.517.003-.067.326-.24c.057.374.035.997-.05 1.461-.192-.15-.227-.784-.28-1.154Zm0 1.154c.073-.122.146-.243.217-.365l-.127.36-.09.005Zm2.101-1.091.061-.005c.017 1.4-.846 1.655-1.982 2.18l-.18.013.707-1.466 1.394-.722Zm-2.137-2.735c.011.037.024.072.034.109l-.09.065-.27-.365.326.19Zm-.326.609.01-.064.08-.006.271.365c-.21-.099-.243-.123-.36-.295Zm.36.934-.486.457-1.043-1.515-1.353-1.174.297-.233c.655.284 1.802.823 2.033 1.497.075.219-.184.4-.009.583.21.218.42.062.562.383l-.001.002Zm-3.04 2.283.11.044.048 1.053-.169-.04c-.158-.117-.269-.66-.124-.897l.134-.16Zm-.8 1.832.117-.004.12.286-.184.07-.177.009c.043-.12.085-.24.125-.361Zm-.328 5.84-.155-.533c.222-.064.443-.128.665-.194l.056-.003a.758.758 0 0 0-.006.05l-.56.68Zm-.516-1.46c.066-.215.113-.248.233-.367l.1.04.028.093-.223.218-.138.014v.002Zm.17.365-.17-.187.36-.178-.093.358-.097.007Zm-.38 1.656-.15-.123.11-.007.557-.43.054.438-.427.292-.144-.17Zm.028 4.184c-.867.037-1.387-.184-2.095-.246l-.81-1.604-.156-.161c1.361-.161 2.218-.818 3.227-1.273.357.34 1.165 2.07.453 2.836-.17.262-.36.289-.619.448Zm-3.725-1.802.325-.02c.491.33.825.92 1.06 1.462l-1.442-.418c.108-.365.153-.736.057-1.024Zm-1.037-1.378 1.625-.469 2.554.25.046.128c-.76.343-1.626.631-2.498 1.073-.944.075-1.172-.277-1.826-.51l.1-.472Zm-.1 1.721.033-.317.62-.047c.052.276.106.43.03.73l-.683-.367v.001Zm-.722.572.242-.133c.297-.197.52.065.84.168l-.128.125-.954-.16Zm.7-.57c-.078-.035-.156-.07-.234-.107l-.105-.259.361.023-.021.343Zm-1.06 0 .361.31c0 .19-.017.17-.06.42l-.3-.73Zm-.934-1.37c.338-.103.789-.08 1.295-.091l-.471.365-.97-.095.146-.178Zm-.866-18.307c.67-.64 2.348-.449 2.769-.042l.113-.01c-.56.522-1.425.582-1.958 1.098-.417-.277-.763-.456-.924-1.046Zm3.68 1.046.283.321c-.252.015-.516.03-.78.053-.597.05-1.186.14-1.598.354l-.053.003-.09-.14a5.159 5.159 0 0 1 2.186-.587l.052-.004Zm1.405-1.826c.465.467 1.16.745 1.401 1.461-.977-.454-2.48-.447-3.242-1.17.671.142 1.243.088 1.84-.29Zm.32 2.557 1.337.184.105-.009-1.072.92c-.17-.338-.21-.797-.37-1.095Zm1.718 1.562-.276-.042.36-.06-.085.102h.001Zm-.276-.873.33-.324.03.365-.24-.052-.12.011Zm.654 12.089-.159.007-.136-.127.105-.138.255-.099-.065.357Zm-.287.668c.042-.05.087-.102.133-.153l.011-.141.21.332-.361.033.007-.07Zm-.143 1.167-.224-.27.72-.096-.344.354-.152.012Zm.136 1.095-.721-.086.51-.279.21.365Zm-.506-1.03.146.138-.522.133-.56.029.779-.365.157.065Zm-2.016-15.774c.42.011.865.117 1.08.365-.29-.028-.812.019-.944-.205l-.136-.16Zm.366 1.46c.205.18.277.393.24.731-.317-.109-.235-.456-.24-.73Zm.354 2.304.012-.062c.718-.156.872.093.545.317-.283-.04-.412-.146-.558-.255Zm.924 9.387.157.04a2.14 2.14 0 0 0-.006.05l-.354.275.148-.361.055-.004Zm-.198-8.91.269-.222.086.365-.36-.08.003-.063h.002Zm1.075 9.768-.87.227-.21.01c0-.011.003-.024.006-.035a1.55 1.55 0 0 0 .728-.33l.305.057.041.07Zm-.62-.858-.1-.203.248-.163.113.061-.142.295-.12.01Zm-2.262 2.526.43-.334 1.327.114.045.099-.897.518c-.333-.055-.62-.203-.793-.405l-.112.008Zm-.666.032.665.365-1.08-.191c.139-.057.276-.116.415-.174Zm-.054.746-.004.087-.206.114-.151.02.006-.088c.157-.209.13-.14.354-.133Zm-1.699-14.868a9.645 9.645 0 0 0-.103-.11c.358-.194.923-.288 1.478-.332.457-.038.907-.042 1.23-.05l.175 1.096c-.471-.05-.92-.113-1.405-.134-.42-.021-.84-.006-1.257.045a57.243 57.243 0 0 0-.118-.515Zm.53 14.658.087.156-.084.327-.996.076c.107-.325.265-.483.436-.73l.557.171Zm-1.23-1.267c-.452-.025-1.072-.357-1.205-.73l1.442.366-.236.364Zm.508-.02-.27.02.008-.088.3-.277c-.014.115-.026.23-.038.345Zm-.991-13.358.439-.14.281.355-.297.011-.423-.226Zm-.006 15.684c-.024.08-.045.16-.068.24l-.105.01-.182-.365.36.037-.005.078Zm.2-1.575.84.17.046.113-.653.812-.788-.116.555-.98Zm6.29-11.45.163-.239.06-.001.453.113.045.065-.505.187a66.549 66.549 0 0 0-.216-.125Zm.976-1.18-.255-.156c.26.095.11-.013.255.156Zm-.082 1.67-.173-.147.361-.218-.188.365Zm-.173 2.557.56.139c.152.059.148.075.16.226-.24-.092-.642-.156-.72-.365Zm.057-.995.076-.1.228.364-.361-.07.057-.194Zm-7.3 12.02.038.096-.486.185-.236.018.005-.05.166-.258c.23-.107.235-.037.513.008Zm-1.044-18.332c.315.235.397.523.347 1.462-.207-.265-.332-.827-.347-1.461v-.001Zm.207-.73-.025.265-.18.013.206-.277h-.001Zm-.207.366c-.01.088-.017.175-.028.263l-.333-.06.275-.198.085-.005h.001Zm0 21.188.179-1.86 1.262-.333-1.328 2.125-.113.068Zm.09-5 .193-.114c.177.21.019.51-.148.73-.139-.13-.154-.212-.118-.508l.072-.108Zm-1.171-.178.415-.667.665.39c-.227.357-.457.714-.687 1.071-.206-.184-.334-.454-.393-.793v-.001Zm0 2.86.665-.605.313.028.103.17c-.028.178-.053.355-.079.532l-1.002-.124Zm-1.08-.495.792-.475.604.095.045.083-.636.552c-.317-.032-.528-.117-.694-.262l-.113.007h.002Zm-.106-.706.29-.135.124.027.051.06-.84.279-.24-.085.615-.146Zm-.976-.343.213-.514c.393-.05.486.143.782.267l.085.13-.44.301-.358.024-.282-.208Zm-.722 1.5.525-.926c.349 0 .391.028.534.212.064.108.009.05-.13.074l-.033.318.547.085c-.108.268-.125.232-.286.402-.538.028-.782-.074-1.157-.166Zm-.606-1.292.916.277.051.108-.587.711-.854-.28.474-.816Zm-3.529-.988.012-.109.51.394.045.105c-1.063.82.563 3.496 2.413 1.762l.796.32c-.306.545-.831.76-1.385 1.069-1.323.11-3.175-2.052-2.39-3.54Zm1.235.374.02.248c-.1-.075-.199-.147-.295-.222l-.066-.143.34.117Zm1.82 1.552-.658.51c-1.297.135-1.822-.762-1.864-1.865l.253-.306.11-.008c.653.513 1.23 1.298 2.117 1.557l.042.111Zm-1.255-5.323c-.118-.085-.125-.127-.184-.272l.246-.937.287-.252.186.272-.535 1.189Zm-.184.316.567-1.344.116-.068c.262.462.642.671.756 1.298l-.855.894a1.73 1.73 0 0 1-.586-.779l.002-.001Zm1.08 1.118.722-.704.358.732c-.36-.01-.72-.02-1.08-.028Zm1.8-7.382c-.34.729-.795 1.224-1.067 1.93-.119-.64.597-1.562.828-2.128l.11-.064.13.262Zm0-2.01c.537-.166.896-.469 1.28-.809l.163.487-.456.609-.987-.287Zm1.802.038-.195.249-.164-.028.003-.04.328-.297.028.116Zm-.283-1.574.057-.003.226.477-.085.253c-.33-.172-.317-.378-.198-.727Zm-.068 10.59.333.239-.341-.15.008-.09Zm-.005.366.356.155a1.231 1.231 0 0 0-.005.042l-.765.534c-.22-.1-.246-.296-.311-.51l.007-.045.718-.176Zm-1.066-.732.342.14-.184.105-.177.02.019-.265Zm-.019-7.304c.433.122.296.04.315.364-.199-.116-.213-.17-.315-.364Zm0 6.524.03-.315a.937.937 0 0 1 .331.365l-.36-.05Zm.722-4.562c-.136.174-.13.128-.36.228l.156-.365.204.137Zm0-1.47-.226.237c-.227-.127-.12-.076-.019-.313l.135-.052.11.129Zm-.03-.62-.33-.238c.254.097.194.038.33.237Zm-.692 6.702.361.287c-.184-.004-.283-.044-.36-.287Zm1.082-.014-.148.014-.125-.232-.088-.113.195-.02c.055.117.11.235.166.35Zm-.198-6.764-.163-.161c.158.11.053.003.161.163l.002-.002Zm.02 6.016-.183-.382.078-.314.045-.003.238.73-.177-.03Zm-.943 4.251.04.049-.13.482a.987.987 0 0 1-.591-.73l.68.2Zm-1.042.531.36.32c-.23-.102-.244-.098-.36-.32Zm.623-3.239.042.316-.304-.365.262.05Zm-.357 1.709-.266-.661c.315.12.562.481.722.73l-.456-.069Zm.283-6.503.09-.003-.264.365c-.043-.09.01-.177.156-.283l.018-.08Zm-.188 3.14-.072.144-.207-.16-.082-.174.283-.031.078.22Zm-2.523 3.067c.722.47 1.95.906 2.162 1.826a5.993 5.993 0 0 1-2.162-1.826Zm1.873-.354.289.354-.72-.365.431.011Zm2.639 1.085-.548-.552.958-.91.123 1.002-.533.46Zm.533.61.095-.238.127-.007.138.365-.36-.12Zm.486-1.34-.126-.366.262.048-.136.317Zm-.486-12.302.003-.033c.119-.028.238-.056.357-.088l-.25.366-.11-.245Zm-3.633 7.552-.33-.73c.423.091.354.393.33.73Zm-.882.365c-.309-.214-.506-.64-.53-1.096.633.15.598.398.722.976l-.192.12Zm-.373-1.907c-.46-.434.21-2.173.504-2.573.156-.197.351-.193.609-.27l.171.045c-.433.767-.725 1.812-.828 2.879l-.456-.08Zm-.672 5.926.22.37-.197.46-.114.12c.162.022.198-.116.44-.313.466.757 1.18 1.482 1.967 1.894l-.43.756-1.302-.838c-.148-.276.057-.593-.182-.762-.217-.153-.496.068-.716.002l-.612-.56c.18-.403.353-.796.708-1.002l.218-.127Zm-1.246-4.029a9.4 9.4 0 0 1 .211-1.081l.048-.005.188 1.086.1.566c.283.79.569 1.579.855 2.366-.686-.374-1.109-1.239-1.048-2.402-.164.375-.028.965.026 1.296-.42-.356-.473-1.066-.38-1.826Zm-.625.375a1.331 1.331 0 0 1-.122-.438 2.875 2.875 0 0 1 .005-.616l.063-.13.279-.277-.158 1.021-.067.439v.001Zm25.086 3.652-.72-.277.699-.086.021.363Zm-19.068 5.946.189-.1-.218.365.028-.264.002-.001Zm-5.434-12.52-.307-.028c-.382-.126-.74-.572-.773-1.067.585.052.783.33 1.072.668.002.142.007.285.008.428Zm-.042-.03c.042-.788-.56-1.28-1.34-1.259.132-1.107 1.095-1.673 1.953-2.046l.165-.012c-.143 1.39-.034 2.587-.553 3.79-.384.887-1.744.87-1.67 2.237l.01.113c.193 1.818 2.17 2.188 2.442 3.786-2.93 1.49.642 7.754 2.96 4.075.415.06.785.248 1.301.067.241-.133.288-.24.381-.518l.828.428.043.105c-.759.59-1.294 1.397-2.11 1.95l.078-.224-.212-.038-.117.063-.107.496c.466.475 1.877-1.245 2.29-1.581-.233.816-.81 1.237-1.132 1.984l.1.102c.608-.436 1.354-1.67 1.467-2.609l.912.152c-1.142 1.544-4.077 4.942-5.62 5.849.235-.738.609-1.301.799-1.907l-.11.009a19.015 19.015 0 0 0-.1-.102c-.375.739-.994 1.258-1.104 2.255.066.098.15.184.246.253 1.835-.306 4.898-4.916 6.362-6.176-.396 3.978-2.528 4.598-4.377 7.007 1.68-.838 2.7-2.976 4.136-4.162-.158 1.66-.553 5.374-1.547 6.035l.164-.013c1.116-.694 1.18-3.546 1.553-5.004l.159-1.533 1.592-2.237.116-.063c.179.559.985 1.166 1.859 1.003l.627-.263 1.574.589c.207 2.265.128 3.534-1.306 5.259 1.465-.75 2.003-3.634 1.514-5.166 3.407.395 3.27-.754 2.625-3.236l.598.01c-.11-.165-.409-.042-.637-.17-.103-.066-.083-.053-.147-.153.81-.913 2.76-.005 2.35 1.51.56-1.256-.678-2.374-1.871-1.924.51-.605 1.126-1.102 1.45-1.901l.115-.063 2.803 2.945.166-.013.127-.173c-.892-1.056-1.782-2.113-2.671-3.17l.286-.13a.58.58 0 0 1 .494-.172 31.109 31.109 0 0 1-.142-.07c1.431.142 3.26 1.335 4.754.95.137-.239.144-.368.06-.601 1.592.04 4.454-.493 5.366-1.266-2.45.514-5.207.688-7.455.388l-1.991-.233-.112.008.536-.963c1.642-.03 5.949-.072 6.82-1.102l-.193-.258-.75-.108a.558.558 0 0 0-.086.28l.595.063c-1.291.326-4.887 1.012-6.06.611-.123-.15-.033-.67-.027-1.046.002-.067 0-.134-.008-.2 1.687-.505 2.94-1.64 3.453-3.353.294-.98.1-2.269.734-2.88.405.035.487.206.784.322-.157-.218-.382-.34-.664-.438l-.528.363c-.483.187-.988-.301-1.808.08-.665-.57-1.04-1.468-1.939-1.812l-.092-.156 1.09-1.06c-.357.298-.72.65-1.084 1.005l-.73-.327-.043-.106c.832-.59 1.571-.807 2.518-.62.044.087.09.174.136.261-.044.075-.084.097-.122.118l-.318-.085c.137.08.28.106.423.132l.12-.118.019-.164c-.207-.184-.27-.317-.677-.331l.194-.286c-.464.32-1.407.405-1.868.682l1.067-.84.127-.172-1.974 1.178c-.422-.029-.871-.227-1.099-.463l-.109.008 2.344-1.585-.038-.16c-.889.518-1.78 1.036-2.667 1.556l-.852-.21.08-.766 6.11-4.798.11-.009-.087-.21c-.227-.108-1.157.646-1.508.871-1.353.868-2.55 1.948-3.88 2.732.55-.698 1.554-1.393 1.721-2.41l-.268-.033-.42.357.456-.198c-.294.896-1.628 2.495-2.38 3.002l-.088-.211c.49-.824.972-1.932.746-2.99l-.411-.24-.44.032c.281.112.473.139.68.276.13 1.025-.373 1.719-.645 2.548l-.116.063c-.181-.336-.17-.497-.542-.558l-.033-.215.255-.346.176-.121c.06.113.062.072.08.266a.549.549 0 0 0 .084-.278l-.208-.093-.55.583c-.46-.307-.968-.63-1.615-.75.367-.76 1.481-1.982.906-2.946-.702-1.172-3.098.178-3.976 1.108a1.74 1.74 0 0 0-.263.346c.087-.07.174-.137.263-.204.866-.646 3.172-2.191 3.672-.956.524.69-.48 2.016-.753 2.555-.934-.094-1.911-.184-2.916-.164a10.51 10.51 0 0 0-3.116.501c-.51.169-2.684 1.471-2.767 1.454l-.991-.96-2.073-1.04-.01.109-.123.117 2.656 2.248-.405.248c-1.093-.828-1.846-1.33-3.472-1.754l-.275.021c.95.654 1.907 1.253 2.863 1.853l.19.258c-.682.287-.97.885-1.547 1.256-.9-.43-1.734-.821-2.825-1.151l-.077.223 2.044 1.317.11-.009-.352.244c-.162.548-.48 1.183-.747 1.956-1.02.83-2.34.78-2.545 2.47-.326.09-.555.118-.852.336l-.023.22c.187.26 1.842.96 2.237 1.028l.243-.235-.001.002Zm12.089-11.686.151.028-.202-.025c-.036 0-.071.003-.105.004.16-.297.63-.37 1.081-.338l-.03.215-.884.044-.011.072Zm.631.392.425-.139c.184-.306.288-.63.195-.925-.437-.087-.69.02-1.098.192l-.223.364-.085.141c.026.03.055.06.085.085.139.114.306.153.613.128.085.144-.014.08-.165.12l.254.034H24.2Zm10.48 3.288-.456.085.28-.02.321.14-.487.891c.25-.296.5-.505.606-.954l-.265-.142Zm-2.62 14.248c-.113-.202-.236-.335-.359-.367.11.104.235.226.36.367Zm-1.44 4.383-.36.21.276-.026.085-.184h-.001Zm1.44-4.383c.367.413.642 1.206.563 1.826.416-.899-.058-1.46-.562-1.826Z" fill="#fff"/></svg>