<svg width="85" height="48" fill="none" xmlns="http://www.w3.org/2000/svg"><path d="M47.673 24c0 13.254-10.672 24-23.837 24S0 37.258 0 24 10.672 0 23.836 0C37 0 47.673 10.745 47.673 24Zm26.15 0c0 12.477-5.337 22.592-11.92 22.592-6.581 0-11.917-10.118-11.917-22.592 0-12.475 5.336-22.592 11.918-22.592 6.582 0 11.918 10.117 11.918 22.592Zm10.695 0c0 11.18-1.877 20.241-4.192 20.241-2.315 0-4.192-9.065-4.192-20.241 0-11.177 1.877-20.242 4.193-20.242 2.315 0 4.19 9.063 4.19 20.242Z" fill="#000"/></svg>